<svg enable-background="new 0 0 512 512" height="512px" id="Layer_1" version="1.1" viewBox="0 0 512 512" width="512px" xml:space="preserve" xmlns="http://www.w3.org/2000/svg" xmlns:xlink="http://www.w3.org/1999/xlink"><g><path d="M447.5,511.5h-384c-35.375,0-64-28.625-64-64v-384c0-35.375,28.625-64,64-64h384c35.375,0,64,28.625,64,64v384   C511.5,482.875,482.875,511.5,447.5,511.5z M255.5,190.5c-35.875,0-65,29.125-65,65s29.125,65,65,65s65-29.125,65-65   S291.375,190.5,255.5,190.5z M447.5,63.5h-64v64h64V63.5z M447.5,255.5h-56c0,75.125-60.875,136-136,136s-136-60.875-136-136h-56   v192h384V255.5z"/></g></svg>